<?xml version="1.0" encoding="UTF-8" standalone="no"?>
<svg width="422px" height="448px" viewBox="0 0 422 448" version="1.1" xmlns="http://www.w3.org/2000/svg" xmlns:xlink="http://www.w3.org/1999/xlink" xmlns:sketch="http://www.bohemiancoding.com/sketch/ns">
    <!-- Generator: Sketch 3.0.1 (7597) - http://www.bohemiancoding.com/sketch -->
    <title>Untitled</title>
    <description>Created with Sketch.</description>
    <defs></defs>
    <g id="Page-1" stroke="none" stroke-width="1" fill="none" fill-rule="evenodd" sketch:type="MSPage">
        <path d="M117.691405,344.695309 C117.691405,344.695309 129.140625,326.894531 117.691406,299.34375 C106.242188,271.792969 69.4023438,253.558594 80.0234375,191.855469 C90.6445312,130.152344 168.910156,118.535156 168.910156,118.535156 C168.910156,118.535156 196.121099,106.820313 258.207031,119.183594 C320.292964,131.546875 333.652344,181.480469 333.652344,181.480469 C333.652344,181.480469 345.449224,229.988285 323.59375,261.722656 C301.738276,293.457027 284.230474,316.355473 296.378906,344.695312 C308.527339,373.035152 306.527349,400.855473 290.367188,415.003906 C274.207026,429.15234 216.515625,465.12891 152.332031,436.117188 C88.1484371,407.105465 117.691405,344.695309 117.691405,344.695309 Z" id="Path-1" stroke="#979797" fill="#000000" sketch:type="MSShapeGroup"></path>
        <path d="M69.8867188,189.828125 C69.8867188,189.828125 -3.75,164.320312 1.65625,93 C7.0625,21.6796875 74.7773438,4.65625 74.7773438,4.65625 C74.7773438,4.65625 97.4140665,-1.9296875 120.621094,3.56640625 C120.621097,3.56640633 86.5742188,31.4804688 86.5742188,31.4804688 C86.5742188,31.4804688 49.5234415,80.7343795 97.6757812,131.667969 C74.7773474,153.601558 69.8867188,189.828125 69.8867188,189.828125 Z" id="Path-2" stroke="#979797" fill="#000000" sketch:type="MSShapeGroup"></path>
        <path d="M369.886719,194.828125 C369.886719,194.828125 296.25,169.320312 301.65625,98 C307.0625,26.6796875 374.777344,9.65625 374.777344,9.65625 C374.777344,9.65625 397.414067,3.0703125 420.621094,8.56640625 C420.621097,8.56640633 386.574219,36.4804688 386.574219,36.4804688 C386.574219,36.4804688 349.523442,85.7343795 397.675781,136.667969 C374.777347,158.601558 369.886719,194.828125 369.886719,194.828125 Z" id="Path-3" stroke="#979797" fill="#000000" sketch:type="MSShapeGroup" transform="translate(361.000000, 100.500000) scale(-1, 1) translate(-361.000000, -100.500000) "></path>
    </g>
</svg>